<svg xmlns="http://www.w3.org/2000/svg" aria-hidden="true" style="position:absolute;width:0;height:0;overflow:hidden">
    <defs>
        <symbol id="icon-chevron-down" viewBox="0 0 32 32">
            <path d="M21.724 11.057 16 16.781l-5.724-5.724-1.885 1.885L16 20.551l7.609-7.609-1.885-1.885z"/>
        </symbol>
        <symbol id="icon-chevron-left" viewBox="0 0 32 32">
            <path d="M17.724 8.391 10.115 16l7.609 7.609 1.885-1.885L13.885 16l5.724-5.724-1.885-1.885z"/>
        </symbol>
        <symbol id="icon-chevron-right" viewBox="0 0 32 32">
            <path d="m12.943 22.599 7.609-7.609-7.609-7.609-1.885 1.885 5.724 5.724-5.724 5.724 1.885 1.885z"/>
        </symbol>
        <symbol id="icon-chevron-up" viewBox="0 0 32 32">
            <path d="m8.391 19.057 1.885 1.885L16 15.218l5.724 5.724 1.885-1.885L16 11.448l-7.609 7.609z"/>
        </symbol>
        <symbol id="icon-down-arrow-alt" viewBox="0 0 32 32">
            <path d="m24.943 16.943-1.885-1.885-5.724 5.724V8.001h-2.667v12.781l-5.724-5.724-1.885 1.885 8.943 8.943 8.943-8.943z"/>
        </symbol>
        <symbol id="icon-Facebook" viewBox="0 0 32 32">
            <path d="M29.333 16.405C29.333 8.996 23.364 2.99 16 2.99S2.667 8.996 2.667 16.405c0 6.696 4.876 12.245 11.25 13.252v-9.374h-3.385v-3.878h3.385V13.45c0-3.362 1.991-5.219 5.036-5.219 1.459 0 2.985.262 2.985.262v3.301h-1.681c-1.656 0-2.173 1.034-2.173 2.095v2.516h3.698l-.591 3.878h-3.107v9.374c6.374-1.006 11.25-6.556 11.25-13.252z"/>
        </symbol>
        <symbol id="icon-Instagram" viewBox="0 0 32 32">
            <path d="M15.998 6.161c3.206 0 3.585.014 4.846.071 1.172.052 1.804.248 2.226.412.558.216.961.478 1.378.895.422.422.679.82.9 1.378.164.422.361 1.059.412 2.226.056 1.266.071 1.645.071 4.847s-.014 3.585-.071 4.847c-.052 1.172-.248 1.804-.412 2.227a3.702 3.702 0 0 1-.895 1.377c-.422.422-.82.679-1.378.9-.422.164-1.06.361-2.226.412-1.266.056-1.645.071-4.847.071s-3.585-.014-4.847-.071c-1.172-.052-1.804-.248-2.226-.412a3.714 3.714 0 0 1-1.378-.895 3.767 3.767 0 0 1-.9-1.378c-.164-.422-.361-1.06-.412-2.226-.056-1.266-.071-1.645-.071-4.847s.014-3.585.071-4.847c.052-1.172.248-1.804.412-2.226.216-.558.478-.961.895-1.378.422-.422.82-.679 1.378-.9.422-.164 1.059-.361 2.226-.412 1.261-.056 1.641-.071 4.847-.071h.001zm0-2.16c-3.258 0-3.665.014-4.945.071-1.275.056-2.151.262-2.91.558a5.847 5.847 0 0 0-2.127 1.387A5.883 5.883 0 0 0 4.629 8.14c-.295.764-.502 1.636-.558 2.91C4.015 12.335 4 12.742 4 15.999s.014 3.665.071 4.945c.056 1.275.262 2.151.558 2.91a5.86 5.86 0 0 0 1.387 2.127 5.876 5.876 0 0 0 2.123 1.383c.764.295 1.636.502 2.91.558 1.279.056 1.687.071 4.945.071s3.666-.014 4.945-.071c1.275-.056 2.151-.262 2.91-.558.787-.305 1.458-.717 2.123-1.383s1.078-1.336 1.383-2.123c.295-.764.502-1.635.558-2.91.056-1.279.071-1.687.071-4.945s-.014-3.665-.071-4.945c-.056-1.275-.262-2.151-.558-2.91a5.622 5.622 0 0 0-1.373-2.133 5.876 5.876 0 0 0-2.123-1.383c-.764-.295-1.635-.502-2.91-.558-1.284-.061-1.692-.075-4.949-.075L15.999 4z"/>
            <path d="M15.998 9.836a6.164 6.164 0 1 0 6.163 6.163 6.164 6.164 0 0 0-6.163-6.163zm0 10.161a3.998 3.998 0 1 1 0-7.996 3.998 3.998 0 0 1 0 7.996zM23.843 9.592a1.439 1.439 0 1 1-2.877 0 1.439 1.439 0 0 1 2.877 0z"/>
        </symbol>
        <symbol id="icon-left-arrow-alt" viewBox="0 0 32 32">
            <path d="m16.943 23.057-5.724-5.724H24v-2.667H11.219l5.724-5.724-1.885-1.885L6.115 16l8.943 8.943 1.885-1.885z"/>
        </symbol>
        <symbol id="icon-burger-menu" viewBox="0 0 32 32">
            <path d="M5.333 8h21.333v2.667H5.333V8zm0 6.667h21.333v2.667H5.333v-2.667zm0 6.666h21.333V24H5.333v-2.667z"/>
        </symbol>
        <symbol id="icon-minus" viewBox="0 0 32 32">
            <path d="M6.667 14.667h18.667v2.667H6.667v-2.667z"/>
        </symbol>
        <symbol id="icon-plus" viewBox="0 0 32 32">
            <path d="M25.333 14.667h-8v-8h-2.667v8h-8v2.667h8v8h2.667v-8h8v-2.667z"/>
        </symbol>
        <symbol id="icon-right-arrow-alt" viewBox="0 0 32 32">
            <path d="m15.057 23.057 1.885 1.885 8.943-8.943-8.943-8.943-1.885 1.885 5.724 5.724H8v2.667h12.781l-5.724 5.724z"/>
        </symbol>
        <symbol id="icon-up-arrow-alt" viewBox="0 0 32 32">
            <path d="M14.667 11.219V24h2.667V11.219l5.724 5.724 1.885-1.885L16 6.115l-8.943 8.943 1.885 1.885 5.724-5.724z"/>
        </symbol>
        <symbol id="icon-close" viewBox="0 0 32 32">
            <path d="m21.589 8.459-5.657 5.656-5.656-5.656-1.885 1.885L14.047 16l-5.656 5.656 1.885 1.885 5.656-5.656 5.657 5.656 1.885-1.885L17.818 16l5.656-5.656-1.885-1.885z"/>
        </symbol>
        <symbol id="icon-Youtube" viewBox="0 0 32 32">
            <path d="M28.791 9.604a3.345 3.345 0 0 0-2.35-2.354C24.353 6.677 16 6.667 16 6.667s-8.352-.009-10.441.539a3.416 3.416 0 0 0-2.354 2.371c-.551 2.088-.556 6.419-.556 6.419s-.005 4.352.541 6.419a3.341 3.341 0 0 0 2.351 2.353c2.109.573 10.44.583 10.44.583s8.353.009 10.441-.537a3.356 3.356 0 0 0 2.356-2.35c.552-2.087.556-6.416.556-6.416s.027-4.353-.543-6.441zM13.328 20.007l.007-8 6.943 4.007-6.949 3.993z"/>
        </symbol>
    </defs>
</svg>