<svg xmlns="http://www.w3.org/2000/svg" aria-hidden="true" style="position:absolute;width:0;height:0;overflow:hidden">
    <defs>
        <symbol id="icon-chevron-down" viewBox="0 0 32 32">
            <path d="M21.724 11.057 16 16.781l-5.724-5.724-1.885 1.885L16 20.551l7.609-7.609-1.885-1.885z"/>
        </symbol>
        <symbol id="icon-chevron-left" viewBox="0 0 32 32">
            <path d="M17.724 8.391 10.115 16l7.609 7.609 1.885-1.885L13.885 16l5.724-5.724-1.885-1.885z"/>
        </symbol>
        <symbol id="icon-chevron-right" viewBox="0 0 32 32">
            <path d="m12.943 22.599 7.609-7.609-7.609-7.609-1.885 1.885 5.724 5.724-5.724 5.724 1.885 1.885z"/>
        </symbol>
        <symbol id="icon-chevron-up" viewBox="0 0 32 32">
            <path d="m8.391 19.057 1.885 1.885L16 15.218l5.724 5.724 1.885-1.885L16 11.448l-7.609 7.609z"/>
        </symbol>
        <symbol id="icon-down-arrow-alt" viewBox="0 0 32 32">
            <path d="m24.943 16.943-1.885-1.885-5.724 5.724V8.001h-2.667v12.781l-5.724-5.724-1.885 1.885 8.943 8.943 8.943-8.943z"/>
        </symbol>
        <symbol id="icon-Facebook" viewBox="0 0 32 32">
            <path d="M29.333 16.405C29.333 8.996 23.364 2.99 16 2.99S2.667 8.996 2.667 16.405c0 6.696 4.876 12.245 11.25 13.252v-9.374h-3.385v-3.878h3.385V13.45c0-3.362 1.991-5.219 5.036-5.219 1.459 0 2.985.262 2.985.262v3.301h-1.681c-1.656 0-2.173 1.034-2.173 2.095v2.516h3.698l-.591 3.878h-3.107v9.374c6.374-1.006 11.25-6.556 11.25-13.252z"/>
        </symbol>
        <symbol id="icon-Instagram" viewBox="0 0 32 32">
            <path d="M15.998 6.161c3.206 0 3.585.014 4.846.071 1.172.052 1.804.248 2.226.412.558.216.961.478 1.378.895.422.422.679.82.9 1.378.164.422.361 1.059.412 2.226.056 1.266.071 1.645.071 4.847s-.014 3.585-.071 4.847c-.052 1.172-.248 1.804-.412 2.227a3.702 3.702 0 0 1-.895 1.377c-.422.422-.82.679-1.378.9-.422.164-1.06.361-2.226.412-1.266.056-1.645.071-4.847.071s-3.585-.014-4.847-.071c-1.172-.052-1.804-.248-2.226-.412a3.714 3.714 0 0 1-1.378-.895 3.767 3.767 0 0 1-.9-1.378c-.164-.422-.361-1.06-.412-2.226-.056-1.266-.071-1.645-.071-4.847s.014-3.585.071-4.847c.052-1.172.248-1.804.412-2.226.216-.558.478-.961.895-1.378.422-.422.82-.679 1.378-.9.422-.164 1.059-.361 2.226-.412 1.261-.056 1.641-.071 4.847-.071h.001zm0-2.16c-3.258 0-3.665.014-4.945.071-1.275.056-2.151.262-2.91.558a5.847 5.847 0 0 0-2.127 1.387A5.883 5.883 0 0 0 4.629 8.14c-.295.764-.502 1.636-.558 2.91C4.015 12.335 4 12.742 4 15.999s.014 3.665.071 4.945c.056 1.275.262 2.151.558 2.91a5.86 5.86 0 0 0 1.387 2.127 5.876 5.876 0 0 0 2.123 1.383c.764.295 1.636.502 2.91.558 1.279.056 1.687.071 4.945.071s3.666-.014 4.945-.071c1.275-.056 2.151-.262 2.91-.558.787-.305 1.458-.717 2.123-1.383s1.078-1.336 1.383-2.123c.295-.764.502-1.635.558-2.91.056-1.279.071-1.687.071-4.945s-.014-3.665-.071-4.945c-.056-1.275-.262-2.151-.558-2.91a5.622 5.622 0 0 0-1.373-2.133 5.876 5.876 0 0 0-2.123-1.383c-.764-.295-1.635-.502-2.91-.558-1.284-.061-1.692-.075-4.949-.075L15.999 4z"/>
            <path d="M15.998 9.836a6.164 6.164 0 1 0 6.163 6.163 6.164 6.164 0 0 0-6.163-6.163zm0 10.161a3.998 3.998 0 1 1 0-7.996 3.998 3.998 0 0 1 0 7.996zM23.843 9.592a1.439 1.439 0 1 1-2.877 0 1.439 1.439 0 0 1 2.877 0z"/>
        </symbol>
        <symbol id="icon-left-arrow-alt" viewBox="0 0 32 32">
            <path d="m16.943 23.057-5.724-5.724H24v-2.667H11.219l5.724-5.724-1.885-1.885L6.115 16l8.943 8.943 1.885-1.885z"/>
        </symbol>
        <symbol id="icon-burger-menu" viewBox="0 0 32 32">
            <path d="M5.333 8h21.333v2.667H5.333V8zm0 6.667h21.333v2.667H5.333v-2.667zm0 6.666h21.333V24H5.333v-2.667z"/>
        </symbol>
        <symbol id="icon-minus" viewBox="0 0 32 32">
            <path d="M6.667 14.667h18.667v2.667H6.667v-2.667z"/>
        </symbol>
        <symbol id="icon-plus" viewBox="0 0 32 32">
            <path d="M25.333 14.667h-8v-8h-2.667v8h-8v2.667h8v8h2.667v-8h8v-2.667z"/>
        </symbol>
        <symbol id="icon-right-arrow-alt" viewBox="0 0 32 32">
            <path d="m15.057 23.057 1.885 1.885 8.943-8.943-8.943-8.943-1.885 1.885 5.724 5.724H8v2.667h12.781l-5.724 5.724z"/>
        </symbol>
        <symbol id="icon-star-empty" viewBox="0 0 32 32">
            <path d="M7.226 19.717l-2.384 10.323c-0.027 0.11-0.043 0.237-0.043 0.367 0 0.882 0.715 1.597 1.597 1.597 0.333 0 0.642-0.102 0.898-0.276l-0.006 0.004 8.712-5.808 8.712 5.808c0.249 0.167 0.556 0.267 0.886 0.267 0.885 0 1.602-0.717 1.602-1.602 0-0.155-0.022-0.305-0.063-0.447l0.003 0.011-2.926-10.24 7.258-6.531c0.326-0.294 0.529-0.718 0.529-1.189 0-0.839-0.646-1.527-1.468-1.595l-0.006-0-9.122-0.726-3.947-8.738c-0.255-0.563-0.811-0.947-1.458-0.947s-1.203 0.384-1.454 0.937l-0.004 0.010-3.947 8.738-9.122 0.725c-0.828 0.068-1.474 0.756-1.474 1.595 0 0.449 0.185 0.855 0.483 1.145l0 0 6.742 6.571zM11.79 12.795c0.594-0.048 1.092-0.415 1.327-0.928l0.004-0.010 2.878-6.37 2.878 6.37c0.239 0.523 0.737 0.889 1.326 0.937l0.006 0 6.355 0.504-5.234 4.71c-0.454 0.41-0.635 1.040-0.469 1.629l2.005 7.016-5.978-3.986c-0.249-0.169-0.556-0.27-0.887-0.27s-0.638 0.101-0.893 0.274l0.006-0.004-6.246 4.165 1.68-7.274c0.026-0.108 0.041-0.232 0.041-0.359 0-0.449-0.185-0.854-0.482-1.145l-0-0-4.861-4.739 6.544-0.522z"></path>
        </symbol>
        <symbol id="icon-star-half" viewBox="0 0 32 32">
            <path d="M31.829 11.907l0.128 0.421c0.104 0.318 0.016 0.672-0.224 0.893l-7.754 6.99 2.296 10.475c0.015 0.062 0.024 0.133 0.024 0.206 0 0.276-0.127 0.523-0.325 0.685l-0.002 0.001-0.352 0.253c-0.125 0.105-0.287 0.168-0.464 0.168-0.005 0-0.010-0-0.016-0h0.001c-0.004 0-0.009 0-0.014 0-0.149 0-0.288-0.044-0.403-0.12l0.003 0.002-8.728-5.608-8.68 5.608c-0.113 0.074-0.252 0.119-0.401 0.119-0.005 0-0.011-0-0.016-0h0.001c-0.004 0-0.008 0-0.013 0-0.177 0-0.339-0.064-0.465-0.169l0.001 0.001-0.4-0.253c-0.201-0.163-0.328-0.411-0.328-0.688 0-0.073 0.009-0.143 0.025-0.211l-0.001 0.006 2.299-10.475-7.739-6.973c-0.175-0.157-0.285-0.384-0.285-0.637 0-0.098 0.016-0.192 0.047-0.279l-0.002 0.006 0.176-0.421c0.087-0.323 0.364-0.561 0.701-0.589l0.003-0 10.195-0.859 3.909-9.92c0.116-0.316 0.415-0.538 0.765-0.539h0.415c0.001 0 0.003 0 0.004 0 0.345 0 0.639 0.223 0.743 0.534l0.002 0.006 3.974 9.92 10.195 0.859c0.328 0.021 0.608 0.256 0.702 0.589zM22.574 27.048l-1.787-7.882 5.856-5.272-7.675-0.64-2.968-7.51v17.077l6.574 4.227z"></path>
        </symbol>
        <symbol id="icon-star-filled" viewBox="0 0 32 32">
            <path d="M14.512 1.037c0.228-0.613 0.808-1.041 1.488-1.041s1.26 0.428 1.484 1.030l0.004 0.011 3.245 8.165c0.232 0.582 0.757 0.981 1.358 1.032l8.426 0.706c1.427 0.12 2.006 1.984 0.918 2.958l-6.419 5.752c-0.459 0.411-0.659 1.056-0.518 1.67l1.96 8.6c0.333 1.456-1.184 2.608-2.405 1.827l-7.213-4.608c-0.237-0.155-0.528-0.247-0.84-0.247s-0.603 0.092-0.846 0.251l0.006-0.004-7.213 4.608c-1.222 0.781-2.738-0.37-2.405-1.827l1.96-8.6c0.029-0.118 0.045-0.253 0.045-0.392 0-0.506-0.217-0.96-0.562-1.277l-0.001-0.001-6.419-5.752c-1.088-0.976-0.509-2.838 0.918-2.958l8.426-0.706c0.603-0.051 1.126-0.448 1.36-1.032l3.243-8.165z"></path>
        </symbol>
        <symbol id="icon-up-arrow-alt" viewBox="0 0 32 32">
            <path d="M14.667 11.219V24h2.667V11.219l5.724 5.724 1.885-1.885L16 6.115l-8.943 8.943 1.885 1.885 5.724-5.724z"/>
        </symbol>
        <symbol id="icon-close" viewBox="0 0 32 32">
            <path d="m21.589 8.459-5.657 5.656-5.656-5.656-1.885 1.885L14.047 16l-5.656 5.656 1.885 1.885 5.656-5.656 5.657 5.656 1.885-1.885L17.818 16l5.656-5.656-1.885-1.885z"/>
        </symbol>
        <symbol id="icon-Youtube" viewBox="0 0 32 32">
            <path d="M28.791 9.604a3.345 3.345 0 0 0-2.35-2.354C24.353 6.677 16 6.667 16 6.667s-8.352-.009-10.441.539a3.416 3.416 0 0 0-2.354 2.371c-.551 2.088-.556 6.419-.556 6.419s-.005 4.352.541 6.419a3.341 3.341 0 0 0 2.351 2.353c2.109.573 10.44.583 10.44.583s8.353.009 10.441-.537a3.356 3.356 0 0 0 2.356-2.35c.552-2.087.556-6.416.556-6.416s.027-4.353-.543-6.441zM13.328 20.007l.007-8 6.943 4.007-6.949 3.993z"/>
        </symbol>
        <symbol id="icon-logo" viewBox="0 0 145 32">
            <path d="M15.26 0.126c8.751-0.817 16.506 5.621 17.313 14.373s-5.638 16.5-14.391 17.299c-8.74 0.798-16.475-5.636-17.281-14.376s5.62-16.48 14.359-17.296zM18.433 30.115c7.813-0.938 13.384-8.035 12.442-15.847s-8.043-13.379-15.854-12.432c-7.805 0.947-13.366 8.039-12.424 15.844 0.942 7.806 8.030 13.371 15.836 12.434z"></path>
            <path d="M22.961 7.685l1.831-0.013c0.036 5.283 0.038 10.567 0.008 15.851l-1.893 0.024-0.003-9.927-0.009-2.718c-1.057 2.007-2.258 3.936-3.401 5.893-0.725 1.241-1.398 2.665-2.295 3.781-0.214 0.078-0.446 0.084-0.669 0.033-0.073-0.017-0.225-0.074-0.281-0.118-0.484-0.386-5.034-8.379-5.76-9.591 0.187 1.437 0.069 3.006 0.069 4.456l-0.006 8.152-1.936 0.007c0.060-5.275-0.035-10.553 0.016-15.83l2.108 0.011c0.937 1.676 1.943 3.316 2.915 4.973 1.033 1.76 2.039 3.541 3.136 5.262 1.116-2.039 2.365-4.015 3.565-6.006 0.85-1.41 1.654-2.896 2.606-4.239z"></path>
            <path d="M119.883 11.45c0.374-0.025 0.757-0.035 1.132-0.028 1.395 0.025 2.821 0.771 3.776 1.76 1.19 1.233 1.744 2.952 1.703 4.648-0.040 1.726-0.687 3.366-1.957 4.55-1.126 1.049-2.569 1.61-4.112 1.552-1.766-0.066-2.938-0.811-4.123-2.075-0.046 0.724-0.032 1.456-0.039 2.182 0.008 1.441 0.006 2.881-0.005 4.323-0.672 0.066-1.35 0.060-2.021-0.019 0.11-2.231 0.013-4.515 0.014-6.752 0-3.327 0.053-6.663-0.022-9.989l1.999-0.008c-0.039 0.742-0.030 1.492-0.041 2.236 1.083-1.351 1.987-2.003 3.696-2.379zM120.749 22.148c1.243-0.233 2.205-0.74 2.935-1.812 0.713-1.067 0.969-2.376 0.71-3.633-0.222-1.12-0.886-2.179-1.862-2.791-0.768-0.482-1.599-0.614-2.486-0.589-1.232 0.233-2.23 0.671-2.969 1.745-0.696 1.011-0.995 2.451-0.76 3.654 0.223 1.155 0.907 2.169 1.896 2.805 0.789 0.496 1.621 0.639 2.535 0.623z"></path>
            <path d="M82.587 6.437c0.326 0.335 0.427 1.218 0.621 1.691-2.097 0.88-5.138 0.699-6.825 2.31-1.009 0.964-1.249 2.296-1.271 3.624 0.902-1.115 1.891-2.018 3.371-2.265 1.495-0.25 3.080 0.039 4.306 0.952 1.317 0.981 2.051 2.402 2.271 4.013 0.253 1.851-0.208 3.596-1.344 5.074-0.822 0.913-1.779 1.587-2.984 1.882-1.526 0.374-3.268 0.18-4.612-0.654-1.533-0.953-2.416-2.524-2.799-4.253-0.572-2.584-0.459-6.445 1.030-8.739 1.313-2.023 3.297-2.424 5.5-2.948 0.915-0.218 1.818-0.485 2.735-0.688zM79.1 22.158c1.299-0.192 2.265-0.503 3.072-1.619 0.792-1.094 1.048-2.475 0.802-3.79-0.198-1.061-0.757-2.032-1.668-2.632-0.558-0.369-1.205-0.58-1.874-0.612-1.264 0.141-2.303 0.403-3.144 1.445-0.789 0.979-1.127 2.3-0.953 3.54 0.159 1.131 0.777 2.22 1.706 2.894 0.628 0.456 1.303 0.656 2.058 0.773z"></path>
            <path d="M54.169 7.242c0.738-0.074 1.507-0.039 2.249-0.044-0.1 5.436 0.019 10.889-0.012 16.328l-1.958-0.020 0.003-9.617c-0.005-1.102-0.028-2.206 0.039-3.306-1.804 3.332-3.432 6.811-5.408 10.042l-1.272-0.007c-1.947-3.191-3.566-6.63-5.366-9.909 0.070 1.504 0.023 3.031 0.024 4.537l0.004 8.281c-0.653-0.017-1.303 0.026-1.956-0.005l0.001-9.906c0.001-2.129-0.040-4.272 0.076-6.399l2.178 0.001c0.619 1.062 1.145 2.199 1.708 3.293 1.305 2.537 2.597 5.101 4.005 7.582 2.069-3.508 3.707-7.287 5.685-10.851z"></path>
            <path d="M64.239 11.454c0.299-0.016 0.598-0.027 0.897-0.034 1.567-0.026 3.129 0.402 4.259 1.538 1.512 1.519 1.662 3.434 1.662 5.457-3.263 0.042-6.53-0.003-9.793 0.012 0.101 0.538 0.202 1.054 0.458 1.545 0.51 0.983 1.395 1.719 2.455 2.040 1.269 0.384 2.544 0.159 3.686-0.47 0.383-0.26 0.733-0.565 1.089-0.859 0.512 0.293 1.031 0.537 1.572 0.771-0.805 1.086-1.843 1.878-3.157 2.238-1.682 0.46-3.732 0.28-5.247-0.612-1.328-0.783-2.282-2.073-2.64-3.572-0.448-1.803-0.198-3.775 0.781-5.361 0.943-1.529 2.266-2.284 3.978-2.693zM61.285 16.891c1.616-0.013 3.232-0.018 4.848-0.014l3.021 0.002c-0.295-1.24-0.59-2.389-1.743-3.115-0.844-0.531-1.868-0.612-2.839-0.531-1.049 0.242-1.933 0.72-2.532 1.644-0.405 0.626-0.585 1.299-0.755 2.013z"></path>
            <path d="M104.826 11.45c0.293-0.015 0.586-0.024 0.88-0.029 1.563-0.017 3.125 0.447 4.241 1.588 1.467 1.501 1.603 3.417 1.596 5.399-3.249 0.049-6.506 0.010-9.756 0.018 0.043 0.593 0.147 1.103 0.424 1.636 0.512 0.987 1.362 1.641 2.423 1.951 1.418 0.417 2.709 0.109 3.963-0.587 0.305-0.211 0.578-0.469 0.856-0.715 0.516 0.277 1.038 0.502 1.581 0.718-0.85 1.117-1.907 1.927-3.28 2.274-1.707 0.433-3.667 0.267-5.19-0.652-1.352-0.816-2.279-2.162-2.635-3.695-0.405-1.75-0.123-3.763 0.856-5.281s2.316-2.251 4.041-2.625zM101.769 16.887c1.548-0.004 3.097-0.026 4.644-0.009l3.279-0.002c-0.34-1.275-0.697-2.517-1.93-3.218-0.763-0.435-1.694-0.509-2.556-0.422-1.023 0.169-1.888 0.554-2.523 1.41-0.504 0.677-0.718 1.434-0.912 2.241z"></path>
            <path d="M138.568 11.622c1.979-0.093 3.987-0.025 5.97-0.019-0.101 3.963-0.011 7.952-0.013 11.918l-2.039-0.022-0.002-4.071c-0.974-0.006-2.256-0.196-3.185 0.025-0.29 0.069-0.342 0.215-0.504 0.441-0.688 1.22-1.454 2.398-2.145 3.62-0.77 0.017-1.542 0.020-2.312 0.006 0.754-1.416 1.778-3.218 2.777-4.445-0.119-0.058-0.236-0.119-0.352-0.182-0.87-0.481-1.537-1.254-1.792-2.223-0.265-1.011-0.121-2.164 0.421-3.062 0.729-1.211 1.87-1.676 3.176-1.984zM140.659 17.719c0.602-0.005 1.216 0.014 1.817-0.030-0.008-1.409-0.005-2.819 0.011-4.228-1.196-0.004-2.408-0.036-3.602 0.029-0.753 0.236-1.342 0.491-1.748 1.217-0.27 0.483-0.342 1.12-0.16 1.644 0.176 0.508 0.583 0.864 1.063 1.081 0.809 0.366 1.752 0.294 2.619 0.287z"></path>
            <path d="M89.202 11.731c2.583-0.093 5.186-0.033 7.771-0.037l-0.012 11.825c-0.644-0.009-1.29-0.037-1.929 0.051l-0.009-10.017-1.095 0.044c-0.978-0.048-1.978 0.016-2.957 0.039-0.027 2.384-0.037 7.325-1.706 9.089-0.833 0.879-1.773 0.97-2.91 0.979-0.008-0.622-0.042-1.236-0.087-1.856 0.297-0.027 0.612-0.048 0.901-0.121 1.797-0.453 1.829-6.392 1.874-7.889 0.018-0.584-0.111-1.633 0.161-2.108z"></path>
            <path d="M131.084 11.644l0.264-0.016c0.031 0.043 0.077 0.079 0.096 0.129 0.089 0.233-0.003 10.563-0.002 11.757l-1.732 0.012-0.127-0.026c-0.278-0.501 0.001-10.345-0.086-11.833 0.528 0.007 1.058-0.011 1.586-0.024z"></path>
            <path d="M129.461 7.185l1.991-0.006c-0.021 0.707-0.005 1.414 0.006 2.121l-2.051 0.015c0.030-0.71 0.048-1.42 0.054-2.131z"></path>
        </symbol>
    </defs>
</svg>