<svg xmlns="http://www.w3.org/2000/svg" aria-hidden="true" style="position:absolute;width:0;height:0;overflow:hidden">
    <defs>
        <symbol id="icon-chevron-down" viewBox="0 0 32 32">
            <path d="M21.724 11.057 16 16.781l-5.724-5.724-1.885 1.885L16 20.551l7.609-7.609-1.885-1.885z"/>
        </symbol>
        <symbol id="icon-chevron-left" viewBox="0 0 32 32">
            <path d="M17.724 8.391 10.115 16l7.609 7.609 1.885-1.885L13.885 16l5.724-5.724-1.885-1.885z"/>
        </symbol>
        <symbol id="icon-chevron-right" viewBox="0 0 32 32">
            <path d="m12.943 22.599 7.609-7.609-7.609-7.609-1.885 1.885 5.724 5.724-5.724 5.724 1.885 1.885z"/>
        </symbol>
        <symbol id="icon-chevron-up" viewBox="0 0 32 32">
            <path d="m8.391 19.057 1.885 1.885L16 15.218l5.724 5.724 1.885-1.885L16 11.448l-7.609 7.609z"/>
        </symbol>
        <symbol id="icon-down-arrow-alt" viewBox="0 0 32 32">
            <path d="m24.943 16.943-1.885-1.885-5.724 5.724V8.001h-2.667v12.781l-5.724-5.724-1.885 1.885 8.943 8.943 8.943-8.943z"/>
        </symbol>
        <symbol id="icon-Facebook" viewBox="0 0 32 32">
            <path d="M29.333 16.405C29.333 8.996 23.364 2.99 16 2.99S2.667 8.996 2.667 16.405c0 6.696 4.876 12.245 11.25 13.252v-9.374h-3.385v-3.878h3.385V13.45c0-3.362 1.991-5.219 5.036-5.219 1.459 0 2.985.262 2.985.262v3.301h-1.681c-1.656 0-2.173 1.034-2.173 2.095v2.516h3.698l-.591 3.878h-3.107v9.374c6.374-1.006 11.25-6.556 11.25-13.252z"/>
        </symbol>
        <symbol id="icon-Instagram" viewBox="0 0 32 32">
            <path d="M15.998 6.161c3.206 0 3.585.014 4.846.071 1.172.052 1.804.248 2.226.412.558.216.961.478 1.378.895.422.422.679.82.9 1.378.164.422.361 1.059.412 2.226.056 1.266.071 1.645.071 4.847s-.014 3.585-.071 4.847c-.052 1.172-.248 1.804-.412 2.227a3.702 3.702 0 0 1-.895 1.377c-.422.422-.82.679-1.378.9-.422.164-1.06.361-2.226.412-1.266.056-1.645.071-4.847.071s-3.585-.014-4.847-.071c-1.172-.052-1.804-.248-2.226-.412a3.714 3.714 0 0 1-1.378-.895 3.767 3.767 0 0 1-.9-1.378c-.164-.422-.361-1.06-.412-2.226-.056-1.266-.071-1.645-.071-4.847s.014-3.585.071-4.847c.052-1.172.248-1.804.412-2.226.216-.558.478-.961.895-1.378.422-.422.82-.679 1.378-.9.422-.164 1.059-.361 2.226-.412 1.261-.056 1.641-.071 4.847-.071h.001zm0-2.16c-3.258 0-3.665.014-4.945.071-1.275.056-2.151.262-2.91.558a5.847 5.847 0 0 0-2.127 1.387A5.883 5.883 0 0 0 4.629 8.14c-.295.764-.502 1.636-.558 2.91C4.015 12.335 4 12.742 4 15.999s.014 3.665.071 4.945c.056 1.275.262 2.151.558 2.91a5.86 5.86 0 0 0 1.387 2.127 5.876 5.876 0 0 0 2.123 1.383c.764.295 1.636.502 2.91.558 1.279.056 1.687.071 4.945.071s3.666-.014 4.945-.071c1.275-.056 2.151-.262 2.91-.558.787-.305 1.458-.717 2.123-1.383s1.078-1.336 1.383-2.123c.295-.764.502-1.635.558-2.91.056-1.279.071-1.687.071-4.945s-.014-3.665-.071-4.945c-.056-1.275-.262-2.151-.558-2.91a5.622 5.622 0 0 0-1.373-2.133 5.876 5.876 0 0 0-2.123-1.383c-.764-.295-1.635-.502-2.91-.558-1.284-.061-1.692-.075-4.949-.075L15.999 4z"/>
            <path d="M15.998 9.836a6.164 6.164 0 1 0 6.163 6.163 6.164 6.164 0 0 0-6.163-6.163zm0 10.161a3.998 3.998 0 1 1 0-7.996 3.998 3.998 0 0 1 0 7.996zM23.843 9.592a1.439 1.439 0 1 1-2.877 0 1.439 1.439 0 0 1 2.877 0z"/>
        </symbol>
        <symbol id="icon-left-arrow-alt" viewBox="0 0 32 32">
            <path d="m16.943 23.057-5.724-5.724H24v-2.667H11.219l5.724-5.724-1.885-1.885L6.115 16l8.943 8.943 1.885-1.885z"/>
        </symbol>
        <symbol id="icon-burger-menu" viewBox="0 0 32 32">
            <path d="M5.333 8h21.333v2.667H5.333V8zm0 6.667h21.333v2.667H5.333v-2.667zm0 6.666h21.333V24H5.333v-2.667z"/>
        </symbol>
        <symbol id="icon-minus" viewBox="0 0 32 32">
            <path d="M6.667 14.667h18.667v2.667H6.667v-2.667z"/>
        </symbol>
        <symbol id="icon-plus" viewBox="0 0 32 32">
            <path d="M25.333 14.667h-8v-8h-2.667v8h-8v2.667h8v8h2.667v-8h8v-2.667z"/>
        </symbol>
        <symbol id="icon-right-arrow-alt" viewBox="0 0 32 32">
            <path d="m15.057 23.057 1.885 1.885 8.943-8.943-8.943-8.943-1.885 1.885 5.724 5.724H8v2.667h12.781l-5.724 5.724z"/>
        </symbol>
        <symbol id="icon-star-empty" viewBox="0 0 32 32">
            <path d="M7.226 19.717l-2.384 10.323c-0.027 0.11-0.043 0.237-0.043 0.367 0 0.882 0.715 1.597 1.597 1.597 0.333 0 0.642-0.102 0.898-0.276l-0.006 0.004 8.712-5.808 8.712 5.808c0.249 0.167 0.556 0.267 0.886 0.267 0.885 0 1.602-0.717 1.602-1.602 0-0.155-0.022-0.305-0.063-0.447l0.003 0.011-2.926-10.24 7.258-6.531c0.326-0.294 0.529-0.718 0.529-1.189 0-0.839-0.646-1.527-1.468-1.595l-0.006-0-9.122-0.726-3.947-8.738c-0.255-0.563-0.811-0.947-1.458-0.947s-1.203 0.384-1.454 0.937l-0.004 0.010-3.947 8.738-9.122 0.725c-0.828 0.068-1.474 0.756-1.474 1.595 0 0.449 0.185 0.855 0.483 1.145l0 0 6.742 6.571zM11.79 12.795c0.594-0.048 1.092-0.415 1.327-0.928l0.004-0.010 2.878-6.37 2.878 6.37c0.239 0.523 0.737 0.889 1.326 0.937l0.006 0 6.355 0.504-5.234 4.71c-0.454 0.41-0.635 1.040-0.469 1.629l2.005 7.016-5.978-3.986c-0.249-0.169-0.556-0.27-0.887-0.27s-0.638 0.101-0.893 0.274l0.006-0.004-6.246 4.165 1.68-7.274c0.026-0.108 0.041-0.232 0.041-0.359 0-0.449-0.185-0.854-0.482-1.145l-0-0-4.861-4.739 6.544-0.522z"></path>
        </symbol>
        <symbol id="icon-star-half" viewBox="0 0 32 32">
            <path d="M31.829 11.907l0.128 0.421c0.104 0.318 0.016 0.672-0.224 0.893l-7.754 6.99 2.296 10.475c0.015 0.062 0.024 0.133 0.024 0.206 0 0.276-0.127 0.523-0.325 0.685l-0.002 0.001-0.352 0.253c-0.125 0.105-0.287 0.168-0.464 0.168-0.005 0-0.010-0-0.016-0h0.001c-0.004 0-0.009 0-0.014 0-0.149 0-0.288-0.044-0.403-0.12l0.003 0.002-8.728-5.608-8.68 5.608c-0.113 0.074-0.252 0.119-0.401 0.119-0.005 0-0.011-0-0.016-0h0.001c-0.004 0-0.008 0-0.013 0-0.177 0-0.339-0.064-0.465-0.169l0.001 0.001-0.4-0.253c-0.201-0.163-0.328-0.411-0.328-0.688 0-0.073 0.009-0.143 0.025-0.211l-0.001 0.006 2.299-10.475-7.739-6.973c-0.175-0.157-0.285-0.384-0.285-0.637 0-0.098 0.016-0.192 0.047-0.279l-0.002 0.006 0.176-0.421c0.087-0.323 0.364-0.561 0.701-0.589l0.003-0 10.195-0.859 3.909-9.92c0.116-0.316 0.415-0.538 0.765-0.539h0.415c0.001 0 0.003 0 0.004 0 0.345 0 0.639 0.223 0.743 0.534l0.002 0.006 3.974 9.92 10.195 0.859c0.328 0.021 0.608 0.256 0.702 0.589zM22.574 27.048l-1.787-7.882 5.856-5.272-7.675-0.64-2.968-7.51v17.077l6.574 4.227z"></path>
        </symbol>
        <symbol id="icon-star-filled" viewBox="0 0 32 32">
            <path d="M14.512 1.037c0.228-0.613 0.808-1.041 1.488-1.041s1.26 0.428 1.484 1.030l0.004 0.011 3.245 8.165c0.232 0.582 0.757 0.981 1.358 1.032l8.426 0.706c1.427 0.12 2.006 1.984 0.918 2.958l-6.419 5.752c-0.459 0.411-0.659 1.056-0.518 1.67l1.96 8.6c0.333 1.456-1.184 2.608-2.405 1.827l-7.213-4.608c-0.237-0.155-0.528-0.247-0.84-0.247s-0.603 0.092-0.846 0.251l0.006-0.004-7.213 4.608c-1.222 0.781-2.738-0.37-2.405-1.827l1.96-8.6c0.029-0.118 0.045-0.253 0.045-0.392 0-0.506-0.217-0.96-0.562-1.277l-0.001-0.001-6.419-5.752c-1.088-0.976-0.509-2.838 0.918-2.958l8.426-0.706c0.603-0.051 1.126-0.448 1.36-1.032l3.243-8.165z"></path>
        </symbol>
        <symbol id="icon-up-arrow-alt" viewBox="0 0 32 32">
            <path d="M14.667 11.219V24h2.667V11.219l5.724 5.724 1.885-1.885L16 6.115l-8.943 8.943 1.885 1.885 5.724-5.724z"/>
        </symbol>
        <symbol id="icon-close" viewBox="0 0 32 32">
            <path d="m21.589 8.459-5.657 5.656-5.656-5.656-1.885 1.885L14.047 16l-5.656 5.656 1.885 1.885 5.656-5.656 5.657 5.656 1.885-1.885L17.818 16l5.656-5.656-1.885-1.885z"/>
        </symbol>
        <symbol id="icon-Youtube" viewBox="0 0 32 32">
            <path d="M28.791 9.604a3.345 3.345 0 0 0-2.35-2.354C24.353 6.677 16 6.667 16 6.667s-8.352-.009-10.441.539a3.416 3.416 0 0 0-2.354 2.371c-.551 2.088-.556 6.419-.556 6.419s-.005 4.352.541 6.419a3.341 3.341 0 0 0 2.351 2.353c2.109.573 10.44.583 10.44.583s8.353.009 10.441-.537a3.356 3.356 0 0 0 2.356-2.35c.552-2.087.556-6.416.556-6.416s.027-4.353-.543-6.441zM13.328 20.007l.007-8 6.943 4.007-6.949 3.993z"/>
        </symbol>
    </defs>
</svg>