<svg width="21" height="21" viewBox="0 0 21 21" fill="none" xmlns="http://www.w3.org/2000/svg">
	<path d="M9.5709 1.47649C9.91464 0.612003 11.0854 0.612004 11.4291 1.47649L13.4579 6.57884C13.6029 6.94328 13.9306 7.19229 14.3067 7.22384L19.5727 7.66545C20.4649 7.74027 20.8267 8.90496 20.1469 9.51407L16.1348 13.1091C15.8483 13.3659 15.723 13.7688 15.8106 14.1527L17.0364 19.528C17.244 20.4387 16.2969 21.1586 15.533 20.6706L11.0246 17.79C10.7025 17.5842 10.2975 17.5842 9.9755 17.79L5.467 20.6706C4.70312 21.1586 3.75596 20.4387 3.96364 19.528L5.18943 14.1527C5.27699 13.7688 5.15183 13.3659 4.86527 13.1091L0.853063 9.51407C0.173281 8.90496 0.535068 7.74027 1.42729 7.66545L6.69337 7.22384C7.06952 7.19229 7.39717 6.94328 7.54208 6.57884L9.5709 1.47649Z" fill="#080C09" />
</svg>