<svg width="21" height="21" viewBox="0 0 21 21" fill="none" xmlns="http://www.w3.org/2000/svg">
  <path d="M9.5709 1.18889C9.91464 0.324405 11.0854 0.324407 11.4291 1.18889L13.4579 6.29124C13.6029 6.65569 13.9306 6.9047 14.3067 6.93624L19.5727 7.37785C20.4649 7.45267 20.8267 8.61737 20.1469 9.22647L16.1348 12.8215C15.8483 13.0783 15.723 13.4812 15.8106 13.8651L17.0364 19.2404C17.244 20.1511 16.2969 20.871 15.533 20.383L11.0246 17.5024C10.7025 17.2966 10.2975 17.2966 9.9755 17.5024L5.467 20.383C4.70312 20.871 3.75596 20.1511 3.96364 19.2404L5.18943 13.8651C5.27699 13.4812 5.15183 13.0783 4.86527 12.8215L0.853063 9.22647C0.173281 8.61737 0.535068 7.45267 1.42729 7.37785L6.69337 6.93624C7.06952 6.9047 7.39717 6.65569 7.54208 6.29124L9.5709 1.18889Z" fill="#080C09" />
</svg>