<svg xmlns="http://www.w3.org/2000/svg" width="1024" height="1024">
    <path stroke="#000" stroke-width="21.333" d="M477.995 142.492c210.466-19.638 396.954 135.18 416.375 345.666 19.422 210.492-135.582 396.809-346.091 416.013-210.199 19.187-396.201-135.548-415.595-345.732-19.392-210.18 135.151-396.339 345.31-415.946zm76.318 721.201c187.891-22.562 321.882-193.229 299.209-381.099-22.669-187.876-193.417-321.76-381.278-298.969-187.695 22.769-321.432 193.328-298.781 381.03 22.653 187.729 193.126 321.557 380.851 299.038z"/>
    <path stroke="#000" stroke-width="21.333" d="m663.236 324.28 44.023-.301c.858 127.063.917 254.129.192 381.19l-45.525.572-.064-238.737-.209-65.377c-25.429 48.255-54.298 94.646-81.801 141.729-17.434 29.845-33.621 64.085-55.198 90.918-5.146 1.886-10.726 2.027-16.09.798-1.749-.405-5.419-1.779-6.754-2.842-11.635-9.284-121.053-201.502-138.528-230.65 4.486 34.567 1.667 72.28 1.649 107.173l-.133 196.049-46.55.162c1.442-126.857-.834-253.803.383-380.687l50.689.264c22.54 40.3 46.719 79.759 70.094 119.584 24.841 42.325 49.028 85.158 75.418 126.537 26.846-49.028 56.87-96.546 85.73-144.439 20.442-33.921 39.765-69.644 62.673-101.943z"/>
</svg>